<svg xmlns="http://www.w3.org/2000/svg" xmlns:xlink="http://www.w3.org/1999/xlink" version="1.1" x="0px" y="0px" viewBox="0 0 65 81.25" enable-background="new 0 0 65 65" xml:space="preserve"><g><rect x="48.1" y="23.2" width="4.5" height="1.5"/><path d="M53.1,55.4h-5.6c-0.4,0-0.7,0.3-0.7,0.7c0,0.4,0.3,0.7,0.7,0.7h5.6c0.4,0,0.7-0.3,0.7-0.7C53.9,55.8,53.5,55.4,53.1,55.4z"/><path d="M62.7,20.6h-6.4V7.9c0-1.5-1.2-2.6-2.6-2.6h-47C5.2,5.3,4,6.5,4,7.9V40h-4.2v3l2.8,3.7h34.5v10.5c0,1.4,1.1,2.5,2.5,2.5   h23.1c1.4,0,2.5-1.1,2.5-2.5V23.1C65.2,21.7,64.1,20.6,62.7,20.6z M63.7,23.1v3H38.6v-3c0-0.6,0.5-1,1-1h23.1   C63.3,22.1,63.7,22.5,63.7,23.1z M38.6,27.6h25.1v25H38.6V27.6z M6.7,6.8h47c0.6,0,1.1,0.5,1.1,1.1v2.5H5.5V7.9   C5.5,7.3,6,6.8,6.7,6.8z M5.5,11.9h49.3v8.7H39.6c-1.4,0-2.5,1.1-2.5,2.5v17H5.5V11.9z M3.3,45.2l-2-2.7v-1h35.8v3.7H3.3z    M62.7,58.2H39.6c-0.6,0-1-0.5-1-1v-3.1h25.1v3.1C63.7,57.8,63.3,58.2,62.7,58.2z"/><path d="M31.4,27.9l0-4.1l-2.3-0.4c-0.2-0.8-0.5-1.5-0.9-2.2l1.4-1.9l-2.9-2.9l-2,1.3c-0.7-0.4-1.4-0.7-2.2-0.9l-0.4-2.3l-4.1,0   l-0.4,2.3c-0.8,0.2-1.5,0.5-2.2,0.9l-1.9-1.4l-2.9,2.8l1.3,2c-0.4,0.7-0.7,1.4-0.9,2.2l-2.3,0.4l0,4.1l2.3,0.4   c0.2,0.8,0.5,1.5,0.9,2.2l-1.4,1.9l2.9,2.9l2-1.3c0.7,0.4,1.4,0.7,2.2,0.9l0.4,2.3l4.1,0l0.4-2.3c0.8-0.2,1.5-0.5,2.2-0.9l1.9,1.4   l2.9-2.9l-1.3-2c0.4-0.7,0.7-1.4,0.9-2.2L31.4,27.9z M27.8,27.1l-0.1,0.5c-0.2,0.9-0.6,1.8-1.1,2.6l-0.3,0.4l1.2,1.7l-1.1,1.1   l-1.7-1.2l-0.4,0.3c-0.8,0.5-1.7,0.9-2.6,1.1l-0.5,0.1l-0.4,2.1l-1.6,0l-0.4-2.1l-0.5-0.1c-0.9-0.2-1.8-0.6-2.6-1.1l-0.4-0.3   l-1.7,1.2l-1.1-1.1l1.2-1.7l-0.3-0.4c-0.5-0.8-0.9-1.7-1.1-2.6L12.2,27l-2.1-0.4l0-1.6l2.1-0.4l0.1-0.5c0.2-0.9,0.6-1.8,1.1-2.6   l0.3-0.4l-1.2-1.7l1.1-1.1l1.7,1.2l0.4-0.3c0.8-0.5,1.7-0.9,2.6-1.1l0.5-0.1l0.4-2.1l1.6,0l0.4,2.1l0.5,0.1   c0.9,0.2,1.8,0.6,2.6,1.1l0.4,0.3l1.7-1.2l1.1,1.1l-1.2,1.7l0.3,0.4c0.5,0.8,0.9,1.7,1.1,2.6l0.1,0.5l2.1,0.4l0,1.6L27.8,27.1z"/><path d="M20,21.1c-2.6,0-4.8,2.1-4.8,4.8c0,2.6,2.1,4.8,4.8,4.8h0c2.6,0,4.8-2.1,4.8-4.8c0-1.3-0.5-2.5-1.4-3.4   C22.5,21.6,21.3,21.1,20,21.1z M20,29.1v0.7V29.1c-1.8,0-3.3-1.5-3.3-3.3c0-1.8,1.5-3.3,3.3-3.3c0.9,0,1.7,0.4,2.3,1   c0.6,0.6,1,1.5,1,2.3C23.3,27.7,21.8,29.1,20,29.1z"/><polygon points="56,36.6 55,37.8 57.9,40.1 55,42.5 56,43.6 60.3,40.1  "/><polygon points="46.3,36.6 42.1,40.1 46.3,43.6 47.3,42.5 44.4,40.1 47.3,37.8  "/><rect x="50.4" y="33.7" transform="matrix(-0.8964 -0.4433 0.4433 -0.8964 79.2415 98.8167)" width="1.5" height="12.9"/></g><text x="0" y="80" fill="#000000" font-size="5px" font-weight="bold" font-family="'Helvetica Neue', Helvetica, Arial-Unicode, Arial, Sans-serif">Created by Creative Stall</text><text x="0" y="85" fill="#000000" font-size="5px" font-weight="bold" font-family="'Helvetica Neue', Helvetica, Arial-Unicode, Arial, Sans-serif">from the Noun Project</text></svg>